<?xml version="1.0" standalone="no"?>
<!DOCTYPE svg PUBLIC "-//W3C//DTD SVG 20010904//EN"
 "http://www.w3.org/TR/2001/REC-SVG-20010904/DTD/svg10.dtd">
<svg version="1.0" xmlns="http://www.w3.org/2000/svg"
 width="305.000000pt" height="267.000000pt" viewBox="0 0 305.000000 267.000000"
 preserveAspectRatio="xMidYMid meet">
<metadata>
Created by potrace 1.16, written by Peter Selinger 2001-2019
</metadata>
<g transform="translate(0.000000,267.000000) scale(0.100000,-0.100000)"
fill="#FF0040" stroke="none">
<path d="M1895 2222 c-80 -3 -95 -12 -95 -58 0 -62 8 -64 341 -64 l298 0 -3
-502 c-2 -277 -6 -515 -10 -530 -3 -16 -3 -28 1 -28 5 0 9 -117 10 -260 l1
-260 -298 0 c-269 0 -300 -2 -319 -18 -29 -24 -34 -66 -11 -87 17 -16 53 -17
367 -16 332 0 349 1 364 20 26 31 29 157 26 988 -2 769 -2 773 -23 793 -20 20
-31 21 -300 23 -153 1 -310 1 -349 -1z"/>
<path d="M1200 1902 c-31 -11 -876 -544 -892 -563 -35 -42 -7 -63 412 -325
484 -302 469 -294 502 -294 50 0 59 31 57 182 l-1 133 408 3 c362 2 410 4 426
19 16 15 18 37 18 259 l0 243 -27 15 c-23 11 -100 14 -426 12 l-397 -1 0 130
c0 72 -3 140 -6 152 -6 23 -49 43 -74 35z m-40 -291 c0 -113 1 -121 22 -135
19 -14 77 -16 425 -16 l403 0 0 -150 0 -150 -403 0 c-348 0 -406 -2 -425 -16
-21 -14 -22 -22 -22 -135 0 -65 -4 -119 -9 -119 -4 0 -19 8 -32 18 -13 10
-160 103 -327 207 -287 180 -301 190 -285 207 19 18 633 406 646 407 4 1 7
-53 7 -118z"/>
</g>
</svg>
